<svg width="256px" height="256px" viewBox="0 0 24 24" fill="none" xmlns="http://www.w3.org/2000/svg"><g id="SVGRepo_bgCarrier" stroke-width="0"></g><g id="SVGRepo_tracerCarrier" stroke-linecap="round" stroke-linejoin="round"></g><g id="SVGRepo_iconCarrier"> <path opacity="0.1" d="M12 3H9C7.11438 3 6.17157 3 5.58579 3.58579C5 4.17157 5 5.11438 5 7V15V20.75C5 20.8881 5.11193 21 5.25 21H18.75C18.8881 21 19 20.8881 19 20.75V15V7C19 5.11438 19 4.17157 18.4142 3.58579C17.8284 3 16.8856 3 15 3H12Z" fill="#d408fd"></path> <path d="M3 21H21" stroke="#d408fd" stroke-width="2" stroke-linecap="round" stroke-linejoin="round"></path> <path d="M19 21V15V7C19 5.11438 19 4.17157 18.4142 3.58579C17.8284 3 16.8856 3 15 3H12H9C7.11438 3 6.17157 3 5.58579 3.58579C5 4.17157 5 5.11438 5 7V15V21" stroke="#d408fd" stroke-width="2" stroke-linejoin="round"></path> <path d="M9 8L10 8" stroke="#d408fd" stroke-width="2" stroke-linecap="round" stroke-linejoin="round"></path> <path d="M9 12L10 12" stroke="#d408fd" stroke-width="2" stroke-linecap="round" stroke-linejoin="round"></path> <path d="M9 16L10 16" stroke="#d408fd" stroke-width="2" stroke-linecap="round" stroke-linejoin="round"></path> <path d="M14 8L15 8" stroke="#d408fd" stroke-width="2" stroke-linecap="round" stroke-linejoin="round"></path> <path d="M14 12L15 12" stroke="#d408fd" stroke-width="2" stroke-linecap="round" stroke-linejoin="round"></path> <path d="M14 16L15 16" stroke="#d408fd" stroke-width="2" stroke-linecap="round" stroke-linejoin="round"></path> </g></svg>
